<?xml version="1.0" standalone="no"?>
<!DOCTYPE svg PUBLIC "-//W3C//DTD SVG 1.1//EN" "http://www.w3.org/Graphics/SVG/1.1/DTD/svg11.dtd" >
<!--
2013-9-30: Created.
-->
<svg>
<metadata>
Created by iconfont
</metadata>
<defs>

<font id="iconfont" horiz-adv-x="1024" >
  <font-face
    font-family="iconfont"
    font-weight="500"
    font-stretch="normal"
    units-per-em="1024"
    ascent="896"
    descent="-128"
  />
    <missing-glyph />
    
    <glyph glyph-name="cmstubiaozitihua06" unicode="&#59216;" d="M684.16 150.24c-27.904 0-52.544-13.76-68.096-34.688L418.112 251.04C422.4 261.28 424.96 272.544 424.96 284.32c0 12.032-2.624 23.488-7.04 33.856l206.336 156.352c15.424-15.296 36.608-24.832 60.032-24.832 46.976 0 85.184 38.208 85.184 85.184S731.2 620 684.16 620C637.312 620 599.04 581.792 599.04 534.88c0-12.288 2.752-23.872 7.488-34.496L400.256 344.16C384.832 359.776 363.456 369.44 339.712 369.44c-46.848 0-85.056-38.208-85.056-85.12s38.208-85.184 85.056-85.184c23.936 0 45.504 9.984 60.928 25.792l201.664-137.92C600.448 80.032 599.04 72.736 599.04 65.12c0-46.912 38.272-85.12 85.12-85.12 46.976 0 85.184 38.208 85.184 85.12C769.344 112.096 731.2 150.24 684.16 150.24zM684.16 588.704c29.696 0 53.888-24.128 53.888-53.824 0-29.696-24.192-53.824-53.888-53.824-29.568 0-53.76 24.128-53.76 53.824C630.464 564.512 654.656 588.704 684.16 588.704zM339.712 230.496c-29.568 0-53.76 24.128-53.76 53.824s24.192 53.824 53.76 53.824c29.696 0 53.888-24.128 53.888-53.824S369.344 230.496 339.712 230.496zM684.16 11.296c-29.568 0-53.76 24.128-53.76 53.824s24.192 53.824 53.76 53.824c29.696 0 53.888-24.128 53.888-53.824S713.856 11.296 684.16 11.296z"  horiz-adv-x="1024" />

    
    <glyph glyph-name="music1" unicode="&#58889;" d="M591.629595 603.359123c-0.055259-54.30072-7.648191-98.187253-28.918633-139.049916-12.507872-24.02723-29.04757-45.058219-48.065715-64.189951-2.807952-2.825348-3.455705-5.328355-2.6432-9.16473 5.314029-25.085328 10.437723-50.212612 15.420201-75.365478 0.63752-3.217275 1.26276-4.706185 5.016247-4.048199 62.859653 11.022031 107.175975-32.153304 119.984698-83.630722 12.69002-50.999534-4.331655-103.705943-44.323485-133.731794-8.207939-6.16235-17.018605-11.349489-26.587542-15.033391-3.78521-1.457188-4.76349-3.178389-3.996011-7.185656 4.242627-22.161742 8.484232-44.330648 12.154831-66.591651 3.862981-23.431665 7.563256-46.855144 4.250814-70.843488-5.947456-43.068911-36.94954-70.859861-80.547501-70.768787-32.363082 0.067538-61.232596 9.868765-84.029812 33.742499-21.221324 22.224164-19.890003 63.243393 2.222621 84.08507 13.932314 13.131065 34.739199 16.175401 52.1835 7.634888 16.280802-7.970532 26.666336-25.78834 25.00244-42.896996-1.936095-19.918655-14.83794-34.743292-34.762735-39.943734-6.463202-1.686409-6.510274-1.713015-3.255137-7.528464 5.952572-10.634198 16.114003-14.586207 27.256784-16.337083 32.574906-5.116531 65.22963 15.709797 74.419943 47.306422 4.254907 14.630209 2.851954 29.500894 1.191128 44.304042-3.508917 31.278377-9.104355 62.235436-14.487969 93.227288-0.589424 3.391237-1.37123 3.882424-4.704139 3.202948-30.934546-6.310729-61.766762-6.522554-92.244914 2.682086-39.353286 11.884678-68.662823 36.69576-87.964424 72.381517-28.417213 52.538587-35.71134 107.478873-13.791098 164.489308 10.07138 26.193569 25.697265 49.081858 43.129286 70.830185 22.775726 28.417213 48.569182 54.055127 74.009597 80.006172 3.258207 3.323699 3.892657 6.288217 3.097548 10.767228-6.005784 33.825386-13.017478 67.586304-14.990413 101.922321-2.801812 48.761564 8.839319 94.1411 35.893488 135.149073 4.9088 7.441483 11.091616 13.905708 18.48091 19.040658 13.316284 9.253758 25.575492 8.144494 36.973076-3.318582 9.326413-9.379625 14.95255-20.99108 19.433608-33.17661C587.91397 660.119871 591.812767 627.694367 591.629595 603.359123zM522.952446 253.114157c-32.995485-8.946766-53.049217-45.877887-43.285852-78.94705 5.364171-18.167778 16.187681-32.651654 30.019711-45.177945 1.677199-1.518586 4.455475-2.472308 2.065032-5.945409-2.408863-3.498684-4.38282-1.064238-6.320962-0.155543-9.977235 4.677533-19.37528 10.329253-28.106128 17.087167-34.851763 26.978445-45.893236 67.712171-28.233018 106.790188 12.124132 26.828019 32.530904 45.620014 59.394738 57.356312 3.361561 1.468444 3.976568 2.651386 3.199878 6.246261-3.216251 14.886035-5.91778 29.881564-8.863878 44.825928-1.793856 9.098215-3.686972 18.176988-5.691629 28.031427-22.523993-20.794605-45.705971-39.203884-66.143443-60.649312-28.717042-30.133298-45.38363-65.159022-45.271066-107.512642 0.075725-28.253484 5.614881-54.737672 21.927405-78.367859 28.402887-41.144072 88.884376-62.929238 143.143141-47.796586 4.081968 1.137916 3.764744 3.301186 3.15383 6.427386-7.28901 37.283138-14.468526 74.586742-21.747303 111.871927C529.203824 222.512185 526.041808 237.793216 522.952446 253.114157zM496.077356 480.52554c22.652929 24.177656 43.895743 48.521087 58.904575 77.663824 10.654664 20.688181 16.059767 42.4713 14.452153 65.822125-0.575098 8.348132-1.980097 16.473183-6.444782 23.76731-5.310959 8.676613-13.44829 11.398608-22.904663 7.605212-6.39771-2.566452-11.704576-6.688329-16.264429-11.787464-13.430894-15.018042-21.067828-33.011858-26.354228-52.122101C487.370043 554.980275 487.703641 518.274282 496.077356 480.52554zM540.361955 255.893456c0-0.973164-0.098237-1.559519 0.014326-2.102894 10.491958-50.959625 21.022803-101.911064 31.455409-152.882969 0.648776-3.168156 1.919722-2.606361 3.858888-1.39272 6.576789 4.118807 12.698207 8.792247 17.928325 14.562671 30.692023 33.860179 26.907836 87.855954-1.470491 119.27657C578.426899 248.546118 561.242518 256.502323 540.361955 255.893456z"  horiz-adv-x="1024" />

    
    <glyph glyph-name="fanhui" unicode="&#58931;" d="M622.650611 527.098251 447.745069 527.098251 447.745069 669.176131 63.980685 477.294962l383.76336-191.882192L447.744046 427.165238l189.391465 0c149.914358 0 224.855164-62.789045 224.855164-188.368158 0-129.928165-77.435627-194.876386-232.338602-194.876386L187.952184 43.920694l0-99.93199L634.146433-56.011296c211.184817 0 316.777737 95.104031 316.777737 285.311071C950.924169 427.821177 841.510224 527.098251 622.650611 527.098251z"  horiz-adv-x="1024" />

    
    <glyph glyph-name="gequxiazai" unicode="&#58984;" d="M728.334093-147.355701 295.14095-147.355701c-127.598096 0-231.03491 103.437837-231.03491 231.035934L64.10604 516.873376c0 127.597073 103.436814 231.035934 231.03491 231.035934l433.193143 0c127.598096 0 231.035934-103.43886 231.035934-231.035934L959.370027 83.679209C959.370027-43.917864 855.93219-147.355701 728.334093-147.355701zM901.610532 487.994652c0 111.646799-90.509387 202.156186-202.154139 202.156186L324.022745 690.150838c-111.648846 0-202.158233-90.508363-202.158233-202.156186l0-375.435695c0-111.647823 90.508363-202.156186 202.158233-202.156186l375.434671 0c111.644753 0 202.154139 90.508363 202.154139 202.156186L901.611555 487.994652zM521.968026 15.606835c-5.65172-5.536087-14.810311-5.536087-20.455891 0L284.913005 227.267489c-5.649674 5.536087-5.649674 14.510482 0 20.046568l20.456914 20.043499c5.649674 5.536087 14.808264 5.536087 20.455891 0l157.032476-153.454998L482.858286 589.071721c0 7.974625 6.464225 14.439874 14.439874 14.439874l28.880771 0c7.973602 0 14.43885-6.465249 14.43885-14.439874l0-475.169163 157.032476 153.454998c5.649674 5.536087 14.810311 5.536087 20.455891 0l20.456914-20.043499c5.649674-5.536087 5.649674-14.511505 0-20.046568L521.968026 15.606835z"  horiz-adv-x="1024" />

    
    <glyph glyph-name="zhuanji" unicode="&#58997;" d="M511.654123-147.701578c-247.249197 0-447.683159 200.433962-447.683159 447.682136S264.404925 747.663716 511.654123 747.663716s447.683159-200.433962 447.683159-447.682136S758.902296-147.701578 511.654123-147.701578zM511.654123 691.856689c-216.427214 0-391.875109-175.447894-391.875109-391.875109s175.446871-391.875109 391.875109-391.875109 391.874085 175.448918 391.874085 391.875109S728.081337 691.856689 511.654123 691.856689zM511.654123 160.07925c-77.266781 0-139.901307 62.635549-139.901307 139.901307 0 77.264735 62.635549 139.900284 139.901307 139.900284 77.265758 0 139.901307-62.635549 139.901307-139.900284C651.555429 222.714799 588.91988 160.07925 511.654123 160.07925zM511.654123 383.920318c-46.357817 0-83.941807-37.581943-83.941807-83.939761 0-46.358841 37.58399-83.940784 83.941807-83.940784s83.941807 37.581943 83.941807 83.940784C595.594907 346.339398 558.01194 383.920318 511.654123 383.920318zM252.759701 360.122309l-59.259662-11.851932c20.418029 135.654586 125.540228 243.481384 259.772418 268.099061l-7.348362-58.784848C350.090447 533.205343 275.119965 456.744927 252.759701 360.122309z"  horiz-adv-x="1024" />

    
    <glyph glyph-name="you" unicode="&#58899;" d="M246.439185-199.181277C229.92676-182.456569 230.012675-155.552076 246.698136-138.996769L686.820909 297.11374 248.570092 739.30816C232.011686 756.034077 232.135112 782.938577 248.821783 799.539864 265.555647 816.102425 292.499964 815.972959 309.06321 799.286974L774.81618 329.29749C775.537373 328.570276 775.706781 327.634941 776.389253 326.913778 776.556241 326.738327 776.770421 326.698396 776.942249 326.531416 785.157318 318.230771 789.28966 307.369754 789.28966 296.560767 789.28966 285.623519 785.073825 274.639082 776.688137 266.338437L306.679402-199.395448C289.947958-215.996736 263.002431-215.867266 246.439185-199.181277L246.439185-199.181277 246.439185-199.181277Z"  horiz-adv-x="1024" />

    
    <glyph glyph-name="yinlezanting" unicode="&#58905;" d="M274.030 725.008c-20.122 0-36.434-16.312-36.434-36.434 0-0.134 0.009-0.266 0.011-0.4h-0.011v-801.157h0.001c0.027-20.099 16.327-36.384 36.433-36.384 20.106 0 36.406 16.284 36.434 36.384h0.001v801.157h-0.012c0.001 0.133 0.012 0.266 0.012 0.4 0 20.121-16.313 36.434-36.435 36.434zM786.403 688.742c0 20.122-16.312 36.434-36.434 36.434-20.121 0-36.433-16.312-36.433-36.434 0-0.134 0.009-0.266 0.011-0.4h-0.011v-801.168h0.001c0.028-20.097 16.327-36.384 36.433-36.384 20.106 0 36.406 16.286 36.433 36.384h0.001v801.168h-0.011c0.003 0.134 0.011 0.267 0.011 0.4z"  horiz-adv-x="1024" />

    
    <glyph glyph-name="geshou" unicode="&#59497;" d="M817.889759-79.219881c-74.339102-30.858822-97.344049-66.242703-227.137137 0-100.243075 51.170426-157.920706 48.120974-210.964806 38.654368l185.40978 220.992183c0.411369-0.002047 0.807389-0.061398 1.218758-0.061398 156.805302 0 283.921421 127.115096 283.921421 283.921421 0 156.805302-127.116119 283.921421-283.921421 283.921421-156.806325 0-283.921421-127.116119-283.921421-283.921421 0-51.659567 14.015202-99.951433 38.125319-141.683906L194.60828 32.044202c-24.952298-58.617026-38.467103-117.80301 23.573905-148.077523 22.916942-11.190877 45.548382-13.996782 67.150376-8.312316l-2.836605-3.546779c0 0 118.369921 71.937402 292.03317 0 145.254222-60.159148 259.585153 32.448016 259.585153 32.448016S875.451756-55.322611 817.889759-79.219881zM566.416354 699.535579c129.922025 0 235.248885-105.32686 235.248885-235.248885S696.338379 229.037808 566.416354 229.037808 331.167468 334.364669 331.167468 464.286694 436.493306 699.535579 566.416354 699.535579zM250.046916-79.219881c-5.02955 2.90312-55.535851 7.560186-32.448016 64.896032l142.159744 284.33279c38.390355-40.821731 88.587618-70.300113 145.286967-82.809007L314.942949-46.771865C283.532565-78.182248 254.199493-81.605208 250.046916-79.219881z"  horiz-adv-x="1024" />

    
    <glyph glyph-name="yinle" unicode="&#58917;" d="M395.473053-51.106726c-102.879112 0-186.582489 65.00348-186.582489 144.900158s83.703377 144.900158 186.582489 144.900158 186.573279-65.00348 186.573279-144.900158S498.352165-51.106726 395.473053-51.106726zM395.473053 201.130066c-82.171488 0-149.017942-48.14758-149.017942-107.336634 0-59.189054 66.846454-107.336634 149.017942-107.336634 82.162278 0 149.008732 48.14758 149.008732 107.336634C544.481785 152.983509 477.635331 201.130066 395.473053 201.130066zM569.502645 86.622102l-37.862329 75.128071L531.640316 800.57465c0 8.80248 12.372795 16.391319 21.103644 18.166755 8.730848 1.720178 20.584827-2.752694 24.087605-10.867512 53.365418-122.94717 121.416304-155.1148 169.994696-178.588421 29.438473-14.236236 55.632041-26.53433 64.86738-54.69981 10.93198-33.308617-3.543709-80.817654-54.44296-175.309748l-32.970926 17.423835c43.112913 80.038918 59.32106 125.193327 52.351322 146.43921-4.145413 12.624529-24.143886 19.942191-50.794873 32.819476-40.939411 19.796882-100.051717 47.744397-156.333558 128.743176L569.502645 86.622102z"  horiz-adv-x="1024" />

    
    <glyph glyph-name="bofang" unicode="&#58927;" d="M512-212C229.285566-212 0.106644 17.232243 0.106644 300 0.106644 582.767757 229.285566 812 512 812 794.714434 812 1023.893356 582.767757 1023.893356 300 1023.893356 17.232243 794.714434-212 512-212ZM512 779.996001C246.956551 779.996001 32.099979 565.086107 32.099979 300 32.099979 34.903228 246.956551-179.996001 512-179.996001 777.043449-179.996001 991.900021 34.903228 991.900021 300 991.900021 565.086107 777.043449 779.996001 512 779.996001ZM639.973339 97.322225 618.644449 97.322225C595.08669 97.322225 575.986669 116.422245 575.986669 139.980004L575.986669 459.913351C575.986669 483.47111 595.08669 502.571131 618.644449 502.571131L639.973339 502.571131C663.531098 502.571131 682.631119 483.47111 682.631119 459.913351L682.631119 139.980004C682.631119 116.422245 663.531098 97.322225 639.973339 97.322225ZM405.355551 97.322225 384.026661 97.322225C360.468902 97.322225 341.368881 116.422245 341.368881 139.980004L341.368881 459.913351C341.368881 483.47111 360.468902 502.571131 384.026661 502.571131L405.355551 502.571131C428.91331 502.571131 448.013331 483.47111 448.013331 459.913351L448.013331 139.980004C448.013331 116.422245 428.91331 97.322225 405.355551 97.322225Z"  horiz-adv-x="1024" />

    
    <glyph glyph-name="sousuo" unicode="&#58981;" d="M929.627121 9.930419 728.151433 211.362104c-1.215688 1.215688-2.734274 1.723248-4.080945 2.690272 51.689243 61.410652 82.923618 140.556223 82.923618 227.094158 0 194.968483-158.084435 353.040638-353.120456 353.040638-194.992019 0-353.09692-158.072155-353.09692-353.040638 0-194.987926 158.104901-353.040638 353.120456-353.040638 86.389556 0 165.42768 31.091112 226.777957 82.568531 0.971118-1.346671 1.503237-2.889817 2.713808-4.105504l201.479781-201.427592c12.351306-12.379958 32.406061-12.379958 44.757367 0C941.98252-22.483828 941.98252-2.449539 929.627121 9.930419L929.627121 9.930419zM453.898209 154.304597c-158.373007 0-286.741653 128.416741-286.741653 286.841937 0 158.429289 128.368646 286.84603 286.741653 286.84603 158.368914 0 286.741653-128.416741 286.741653-286.84603C740.638839 282.721339 612.246657 154.304597 453.898209 154.304597L453.898209 154.304597zM453.898209 154.304597"  horiz-adv-x="1024" />

    
    <glyph glyph-name="bofang1" unicode="&#58908;" d="M698.88 431.36 698.88 431.36 451.84 581.12c-7.68 6.4-16.64 10.24-26.88 10.24-20.48 0-37.12-15.36-40.96-34.56 0 0 0-1.28 0-1.28 0-1.28 0-3.84 0-3.84 0-1.28 0-1.28 0-2.56 0-2.56 0-6.4 1.28-8.96l0-293.12c0-1.28 0-3.84 0-6.4 0-2.56 0-3.84 0-6.4 0-23.04 19.2-42.24 42.24-42.24 8.96 0 17.92 3.84 25.6 8.96l248.32 151.04 0 0c15.36 6.4 26.88 21.76 26.88 39.68C724.48 409.6 714.24 424.96 698.88 431.36zM513.28 883.2C238.08 883.2 15.36 660.48 15.36 385.28c0-275.2 222.72-497.92 497.92-497.92C788.48-112.64 1011.2 110.08 1011.2 385.28 1011.2 660.48 788.48 883.2 513.28 883.2zM513.28-30.72c-238.08 0-430.08 189.44-430.08 422.4 0 232.96 192 422.4 430.08 422.4 238.08 0 430.08-189.44 430.08-422.4C943.36 158.72 750.08-30.72 513.28-30.72z"  horiz-adv-x="1024" />

    
    <glyph glyph-name="music" unicode="&#58888;" d="M318.269205 34.744571l-14.049994 0c-45.665039 0-83.110883 37.360909-83.110883 83.111906L221.108329 330.464713c0 45.666062 37.365003 83.110883 83.110883 83.110883l14.049994 0c45.670156 0 83.115999-37.363979 83.115999-83.110883l0-212.6901C401.384182 72.10548 363.939361 34.744571 318.269205 34.744571L318.269205 34.744571zM318.269205 34.744571M720.338491 33.944346l-14.049994 0c-45.670156 0-83.111906 37.366026-83.111906 83.111906L623.17659 329.665511c0 45.670156 37.363979 83.110883 83.111906 83.110883l14.049994 0c45.670156 0 83.110883-37.360909 83.110883-83.110883l0-212.6901C803.44835 71.310372 766.083347 33.944346 720.338491 33.944346L720.338491 33.944346zM720.338491 33.944346M189.249737 214.858742 189.249737 359.045655c0 176.684048 138.680503 326.542124 315.284733 330.454224C687.844425 693.652456 834.663282 544.91183 834.663282 362.557642l0-147.6989c0-12.135388 9.82374-22.036899 22.035876-22.036899l0 0c12.137435 0 22.038946 9.822716 22.038946 22.036899L878.738104 360.647129c0 205.579145-168.224376 378.751207-373.804545 374.84013-199.278649-3.753487-359.673709-166.463266-359.673709-366.619912l0-154.008606c0-12.135388 9.82067-22.036899 22.035876-22.036899l0 0C179.43316 192.903707 189.249737 202.72233 189.249737 214.858742L189.249737 214.858742zM189.249737 214.858742"  horiz-adv-x="1024" />

    
    <glyph glyph-name="music2" unicode="&#58930;" d="M893.685537 379.536338c-1.321088-10.051937-6.499018-19.594267-15.535835-25.888624L238.942509-56.821891c-4.26514-3.25002-9.036817-5.384637-14.416338-6.599302-0.60989-0.203638-1.322112-0.305969-2.030239-0.407276-2.031263-0.407276-3.858888-1.218758-6.091742-1.218758-1.827625 0-3.350304 0.711198-5.076622 1.01512-1.623987 0.203638-3.146667 0.50756-4.669346 0.915859-2.844791 0.809435-5.482875 1.723248-8.020674 3.046383-2.233877 1.113357-4.163833 2.638083-6.195096 4.158716-1.420349 1.323135-2.841721 2.541893-4.263094 4.061502-1.01512 1.220804-2.437515 1.933025-3.452635 3.351328-1.116427 1.627057-1.421372 3.453658-2.234901 5.176906-0.405229 0.915859-0.810459 1.727341-1.217734 2.744507-1.726318 4.261047-2.639107 8.729825-2.639107 13.198603 0 0.102331 0 0.102331 0 0.102331l0 0.707105c0 2.234901-0.406253 4.367471 0 6.597255L178.634981 795.180803c0 1.219781 0.508583 2.131547 0.607844 3.25002 0.203638 2.638083 0.812505 5.078669 1.623987 7.615445 0.813528 2.740414 1.827625 5.27719 3.248997 7.712659 0.60989 0.813528 0.60989 1.829671 1.219781 2.745531 0.506537 0.706081 1.217734 1.01205 1.827625 1.724271 2.131547 2.639107 4.569062 4.876054 7.309476 7.006578 1.217734 0.711198 2.234901 1.51961 3.452635 2.231831 3.045359 1.830695 6.294356 2.944052 9.949606 3.75758 1.116427 0.304945 2.234901 0.60989 3.452635 0.711198 1.827625 0.304945 3.248997 1.11438 5.076622 1.11438 2.130524 0 4.060479-0.910743 6.091742-1.215688 1.014096-0.202615 2.030239-0.406253 3.146667-0.711198 3.961218-1.016143 7.613398-2.536776 10.862395-4.768607 0.508583-0.304945 1.016143-0.304945 1.421372-0.60989l640.732943-406.714072C891.653251 409.889647 897.034818 394.153244 893.685537 379.536338zM254.170329 42.772408l535.042809 343.464539L254.170329 725.93879 254.170329 42.772408z"  horiz-adv-x="1024" />

    
    <glyph glyph-name="xiangqian" unicode="&#58938;" d="M334.100776 347.789287l313.812195-302.83826c17.557888-15.358803 43.891649-15.358803 59.249429 0 15.362896 17.556864 15.362896 41.696658-2.194992 59.253522L406.520155 391.679913l285.284465 274.310529c17.556864 15.362896 17.556864 41.696658 0 57.05853-17.552771 15.358803-43.891649 15.358803-59.253522 0L318.74095 420.207643c-17.555841-15.358803-17.555841-41.692564 0-57.054437"  horiz-adv-x="1024" />

    
    <glyph glyph-name="zuozhe" unicode="&#58929;" d="M859.136-85.984 158.72-85.984c-64.48 0-116.736 52.288-116.736 116.8L41.984 731.648c0 64.512 53.024 122.336 117.504 122.336l470.016 0 0-58.752L159.488 795.232c-32.224 0-59.136-31.328-59.136-63.584l0-700.864c0-32.256 26.112-58.4 58.368-58.4l700.384 0c32.224 0 64.128 26.848 64.128 59.104L923.232 501.504l58.752 0 0-469.984C982.016-33.024 923.616-85.984 859.136-85.984zM480.896 167.648c-8.544-8.544-19.232-12.8-30.24-14.944l-255.552-126.4C166.368 12.928 143.328 38.72 153.92 67.52l126.304 255.712c2.144 11.008 6.432 21.728 14.944 30.24L749.184 807.776c22.784 22.816 59.744 22.816 82.528 0l103.168-103.232c22.784-22.816 22.784-59.808 0-82.592L480.896 167.648zM209.824 102.848c-6.688-13.472 6.208-27.296 20.608-20.608l157.792 95.584-82.88 82.944L209.824 102.848zM336.448 312.192 665.888 641.856l103.904-102.496L439.648 208.96C400.928 247.68 347.424 301.248 336.448 312.192zM872.992 683.872l-61.92 61.952c-11.392 11.424-29.888 11.424-41.28 0l-60.416-60.448 101.696-104.736 61.92 61.952C884.384 653.984 884.384 672.48 872.992 683.872z"  horiz-adv-x="1024" />

    
    <glyph glyph-name="suijibofang" unicode="&#58890;" d="M67.22667 604.68443h224.0889c11.204445 0 44.81778-11.204445 56.022225-22.40889l78.431116-78.431115c22.40889-33.613335 67.22667-33.613335 100.840005 0 33.613335 22.40889 33.613335 67.22667 0 100.840005l-78.431115 78.431115c-33.613335 33.613335-100.840005 67.22667-156.862231 67.22667h-224.0889c-44.81778 0-67.22667-33.613335-67.22667-67.22667 0-44.81778 33.613335-78.431115 67.22667-78.431115zM907.560046 604.68443h123.248895v-89.63556c0-22.40889 11.204445-33.613335 33.613335-22.40889l257.702236 168.066675c22.40889 11.204445 22.40889 33.613335 0 44.81778l-257.702236 168.066675c-22.40889 11.204445-33.613335 0-33.613335-22.40889v-123.248895h-123.248895c-112.04445 0-134.45334-56.022225-212.884455-134.45334l-257.702235-369.746686c-44.81778-44.81778-179.27112-89.63556-246.497791-89.63556h-123.248895c-44.81778 0-67.22667-33.613335-67.22667-67.22667 0-44.81778 33.613335-67.22667 67.22667-67.22667h123.248895c112.04445 0 268.90668 56.022225 347.337796 134.45334l257.702235 369.746686c56.022225 56.022225 44.81778 100.840005 112.04445 100.840005zM1064.422276 268.551079c-22.40889 11.204445-33.613335 0-33.613335-22.40889v-112.04445h-123.248895c-11.204445 0-44.81778 11.204445-56.022225 22.40889l-78.431115 78.431115c-22.40889 33.613335-67.22667 33.613335-100.840005 0-33.613335-22.40889-33.613335-67.22667 0-100.840005l78.431115-78.431115c33.613335-33.613335 100.840005-67.22667 156.86223-67.22667h123.248895v-89.63556c0-22.40889 11.204445-33.613335 33.613335-22.40889l257.702236 168.066675c22.40889 11.204445 22.40889 33.613335 0 44.81778l-257.702236 179.27112z"  horiz-adv-x="1344" />

    
    <glyph glyph-name="lishi" unicode="&#59003;" d="M512 877.120038c-271.91238 0-493.120038-221.207659-493.120038-493.120038 0-132.006236 51.226606-255.887437 144.224487-348.895551s216.94048-144.224487 348.885318-144.224487 255.887437 51.226606 348.895551 144.224487 144.224487 216.94048 144.224487 348.895551C1005.120038 655.91238 783.871447 877.120038 512 877.120038z m314.021345-807.141383C742.325299-13.717392 630.805612-59.766079 512-59.766079s-230.325299 46.048687-314.021345 129.744734S68.192989 265.194388 68.192989 384c0 244.712955 199.094056 443.807011 443.807011 443.807011S955.786545 628.712955 955.786545 384c0-118.805612-46.048687-230.325299-129.7652-314.021345zM488.873326 309.851381a19.340448 19.340448 0 0 0-19.770236 19.770236V567.601231a19.770236 19.770236 0 0 0 39.540472 0v-218.209377h136.969261a20.854939 20.854939 0 0 0 15.124436-6.32402 16.495663 16.495663 0 0 0 4.6765-12.443379v-1.013071a19.340448 19.340448 0 0 0-19.770237-19.770236z"  horiz-adv-x="1024" />

    
    <glyph glyph-name="xunhuanbofang" unicode="&#58978;" d="M98.506 250.133c-3.43-0.988-7.37-1.557-11.442-1.557-19.555 0-36.050 13.106-41.177 31.014-8.844 30.756-13.887 65.736-13.887 101.893 0 0.134 0 0.269 0 0.403 0 101.419 39.467 196.779 111.2 268.512 68.335 68.691 162.929 111.202 267.452 111.202 0.362 0 0.723-0.001 1.084-0.002h398.451v76.16c0 24.266 16.693 33.386 37.174 20.16l183.467-118.453c20.426-13.226 20.213-34.507-0.48-47.306l-182.56-113.066c-20.693-12.853-37.654-3.467-37.654 20.906v75.84h-398.4c-162.458-0.177-294.089-131.917-294.089-294.399 0-27.96 3.898-55.010 11.18-80.635 0.482-1.35 1.049-5.286 1.049-9.353 0-19.573-13.131-36.080-31.064-41.191zM1084.854 516.48c9.173-33.067 13.813-67.307 13.813-101.867 0-101.387-39.467-196.747-111.2-268.48-68.335-68.691-162.929-111.202-267.452-111.202-0.362 0-0.723 0.001-1.084 0.002h-398.451v-76.267c0-24.266-16.693-33.386-37.174-20.213l-183.413 118.507c-20.426 13.226-20.267 34.507 0.427 47.306l182.614 113.066c20.64 12.853 37.6 3.467 37.6-20.906v-75.84h398.4c162.458 0.177 294.089 131.917 294.089 294.399 0 27.96-3.898 55.010-11.18 80.635-0.343 1.107-0.83 4.761-0.83 8.528 0 23.652 19.174 42.827 42.827 42.827 19.255 0 35.543-12.708 40.933-30.194z"  horiz-adv-x="1137" />

    
    <glyph glyph-name="bofang2" unicode="&#58923;" d="M117.661 768.458c-0.442 53.47 37.263 75.655 83.789 49.3l669.764-379.391c46.523-26.352 46.883-70.099 0.797-97.212L208.617-49.146c-46.08-27.111-84.142-5.551-84.585 47.912l-6.368 769.693-0.003-0.001z"  horiz-adv-x="1024" />

    
    <glyph glyph-name="shunxubofang" unicode="&#58882;" d="M1008.777 621.221l-157.064-153.609c-18.983-16.813-42.399-19.717-52.319-6.572s-2.553 37.6 16.431 54.413l137.408 137.561h-922.664c-16.883 0-30.569 13.686-30.569 30.569s13.686 30.569 30.569 30.569h900.257l-123.392 123.499c-17.256 19.564-20.267 43.561-6.725 53.801s38.486 2.598 55.743-16.966l171.186-171.339c17.256-19.564 20.252-43.561 6.725-53.801-25.564-32.285-57.782-58.153-94.694-75.771zM22.927 111.788h929.451l-144.912 145.050c-17.256 19.564-20.267 43.561-6.725 53.801s38.486 2.598 55.743-16.966l171.186-171.339c17.256-19.564 20.252-43.561 6.725-53.801-32.406-39.575-72.707-71.413-118.634-93.373l-64.047-88.36c-18.983-16.813-42.399-19.717-52.319-6.572s-2.553 37.6 16.431 54.413l115.872 116.009h-908.771c-12.662 0-22.927 10.265-22.927 22.927l0 15.285c-0 12.662 10.265 22.927 22.927 22.927z"  horiz-adv-x="1043" />

    
    <glyph glyph-name="jiangbei" unicode="&#59241;" d="M758.708129 215.927207c-4.607539 0-8.907909 0.921508-13.515448 1.228677-49.761424-52.321168-118.157784-86.724128-194.642936-92.457954 0-0.409559 0.20478-0.819118 0.20478-1.126287v-92.355565h161.673432c12.69633 0 23.140086-10.341366 23.140086-23.140086 0-12.79872-10.341366-23.140086-23.140086-23.140086H343.005699c-12.79872 0-23.140086 10.341366-23.140086 23.140086 0 12.79872 10.341366 23.140086 23.140086 23.140086h161.673433v92.355565c0 0.409559 0.20478 0.819118 0.20478 1.126287-76.485151 5.733827-144.881512 40.136786-194.642936 92.457954-4.505149-0.307169-8.907909-1.228677-13.515449-1.228677-102.082592 0-184.711129 82.730927-184.711128 184.711129V631.629637c0 25.49505 20.682732 46.177782 46.177782 46.177782h69.317868v92.355565c0 25.49505 20.682732 46.177782 46.177782 46.177782h508.057994c25.49505 0 46.177782-20.682732 46.177783-46.177782V677.909809h69.317868c25.49505 0 46.177782-20.682732 46.177782-46.177782v-230.991301c0.10239-102.082592-82.628537-184.813519-184.711129-184.813519z m-531.09569 207.851215v207.851215h-69.317868v-230.991301s12.081992-65.222278 35.017298-91.229277c1.535846-1.740626 28.054795-35.529247 80.171183-44.744325-28.873913 46.280172-45.870613 100.649135-45.870613 159.113688z m554.235776 346.486951H273.790221v-369.524647s15.563244-230.991301 254.028997-230.991301 254.028997 230.991301 254.028997 230.991301V770.265373z m115.495651-138.635736h-69.317869v-207.851215c0-58.464554-16.9967-112.935906-45.973002-159.011299 52.116388 9.112689 78.635336 43.0037 80.171183 44.744326 22.935306 26.109389 35.017298 91.229277 35.017298 91.229277l0.10239 230.888911z"  horiz-adv-x="1024" />

    
    <glyph glyph-name="pajian_gequliebiao_" unicode="&#59159;" d="M830.24 207.04C820.896 162.08 775.104 128 720 128c-61.856 0-112 42.976-112 96s50.144 96 112 96c23.808 0 45.856-6.368 64-17.216V615.904a24 24 0 1 0 48 0v-399.808c0-3.2-0.64-6.272-1.76-9.088zM224 616A24 24 0 0 0 248.16 640h367.68a24 24 0 1 0 0-48H248.16A24 24 0 0 0 224 616z m0-224a24 24 0 0 0 24.16 24h367.68a24 24 0 1 0 0-48H248.16A24 24 0 0 0 224 392z m0-224c0 13.248 11.008 24 24.096 24h207.808a24 24 0 1 0 0-48H248.096A24 24 0 0 0 224 168z"  horiz-adv-x="1024" />

    
    <glyph glyph-name="shanchu" unicode="&#58884;" d="M762.21784064 761.1349606399999L263.1514259911112 761.1349606399999c-45.94729415111111 0-83.17831850666667-37.22833464888889-83.17831850666667-83.17490972444445l0-27.725358648888886 665.4218865777777 0 0 27.725358648888886C845.3961591466667 723.9066259911111 808.1662987377779 761.1349606399999 762.21784064 761.1349606399999M616.9276586666667 816.5845128533333l12.23840654222222-87.50608725333335L396.2032014222222 729.0784244622222l12.237242595555555 87.50608725333335L616.9276586666667 816.5845128533333M623.5888628622222 872.0340639288888l-221.80729514666666 0c-22.879335537777777 0-44.16119239111111-18.519276657777777-47.35614862222222-41.2078944711111l-16.218130204444446-116.01734428444443c-3.1681763555555555-22.66067512888889 12.969614222222221-41.18111573333333 35.848948622222224-41.18111573333333l277.25911950222223 0c22.878170453333333 0 39.017126115555556 18.519276657777777 35.82216874666667 41.2078944711111l-16.21929415111111 116.01734428444443C667.74772736 853.5147872711111 646.4670344533333 872.0340639288888 623.5888628622222 872.0340639288888M776.0805057422222 594.7863051377777L249.28759694222225 594.7863051377777c-30.487150364444446 0-53.20464270222222-24.855371093333332-50.442821404444445-55.232993279999995L244.27975907555555 40.074227484444464c2.7338763377777777-30.378786133333335 29.973675804444444-55.232993279999995 60.460826168888886-55.232993279999995l415.88926122666663 0c30.487150364444446 0 57.72578474666667 24.855371093333332 60.460826168888886 55.232993279999995l45.43381845333333 499.47908437333336C829.2851484444443 569.9309340444445 806.5676561066666 594.7863051377777 776.0805057422222 594.7863051377777M401.7815677155556 95.74033749333353l-83.17831850666667 0-27.726494151111112 388.14686321777776 110.90364757333333 0L401.78040376888896 95.74033749333353zM568.1370396444444 95.74033749333353l-110.90364757333333 0L457.2333920711111 483.8872007111112l110.90364757333333 0L568.1370396444444 95.74033749333353zM706.7660174222221 95.74033749333353l-83.17831850666667 0L623.5876989155555 483.8872007111112l110.90364757333333 0L706.7660174222221 95.74033749333353z"  horiz-adv-x="1024" />

    
    <glyph glyph-name="banben" unicode="&#59785;" d="M419.8 208.8c1.1-2.1 2.5-4.1 4.1-5.9 0.1-0.1 0.1-0.2 0.2-0.2 0.2-0.3 0.5-0.5 0.7-0.8l0.5-0.5 0.5-0.5c0.3-0.2 0.5-0.5 0.8-0.7 0.1-0.1 0.2-0.1 0.2-0.2 3.2-2.9 7-5 11-6.3h0.1c0.4-0.1 0.8-0.3 1.3-0.4 0.1 0 0.2-0.1 0.3-0.1 0.3-0.1 0.7-0.2 1-0.3 0.2 0 0.4-0.1 0.5-0.1 0.3-0.1 0.5-0.1 0.8-0.2 0.2 0 0.5-0.1 0.7-0.1 0.2 0 0.4-0.1 0.7-0.1 0.3 0 0.6-0.1 0.9-0.1 0.2 0 0.4 0 0.6-0.1 0.3 0 0.6-0.1 0.9-0.1h4.6c0.3 0 0.6 0.1 0.9 0.1 0.2 0 0.4 0 0.6 0.1 0.3 0 0.6 0.1 0.9 0.1 0.2 0 0.4 0.1 0.7 0.1 0.2 0 0.5 0.1 0.7 0.1 0.3 0.1 0.5 0.1 0.8 0.2 0.2 0 0.4 0.1 0.5 0.1 0.3 0.1 0.7 0.2 1 0.3 0.1 0 0.2 0.1 0.3 0.1 0.4 0.1 0.8 0.2 1.3 0.4h0.1c4 1.3 7.8 3.5 11 6.3 0.1 0.1 0.2 0.1 0.2 0.2 0.3 0.2 0.5 0.5 0.8 0.7l0.5 0.5 0.5 0.5c0.2 0.3 0.5 0.5 0.7 0.8 0.1 0.1 0.1 0.2 0.2 0.2 1.6 1.8 3 3.8 4.1 5.9l159.6 276.4c8.8 15.3 3.6 34.9-11.7 43.7-15.3 8.9-34.9 3.6-43.7-11.7L448 288 315.7 517.1c-8.9 15.3-28.4 20.6-43.7 11.7-15.3-8.8-20.6-28.4-11.7-43.7l159.5-276.3zM224 64h448c17.7 0 32 14.3 32 32s-14.3 32-32 32H224c-17.7 0-32-14.3-32-32s14.3-32 32-32zM768 768H128c-35.3 0-64-28.7-64-64v-768c0-35.3 28.7-64 64-64h640c35.3 0 64 28.7 64 64V704c0 35.3-28.7 64-64 64z m0-832H128V704h640v-768zM896 896H224c-17.7 0-32-14.3-32-32s14.3-32 32-32h672v-800c0-17.7 14.3-32 32-32s32 14.3 32 32V832c0 35.3-28.7 64-64 64z"  horiz-adv-x="1024" />

    
    <glyph glyph-name="shoucang" unicode="&#58880;" d="M327.728136 91.69872399999997l150.60509 60.966537 33.721009 13.627369 33.721009-13.627369 150.609183-60.914348-4.484128 166.562527-0.907673 32.985252 20.663622 25.711592 96.563266 120.353089L652.842749 484.425224l-30.030967 9.081843-17.825994 25.716708-92.931552 134.033669-92.871177-134.033669-17.825994-25.716708-30.033014-9.081843-155.490354-47.120181 96.566336-120.29476 20.663622-25.711592-0.907673-32.985252L327.728136 91.69872399999997M789.940197-43.129031000000055L512.054235 69.27296899999999 234.17339-43.129031000000055l8.115841 303.886125L62.389956 484.824313l282.879696 85.667102L512.054235 811.130054l166.843936-240.638639 282.711873-85.667102L781.766027 260.756071 789.940197-43.129031000000055 789.940197-43.129031000000055 789.940197-43.129031000000055z"  horiz-adv-x="1024" />

    
    <glyph glyph-name="aixin1" unicode="&#58892;" d="M730.55518 839.092919c-85.983303 0-165.936263-43.136449-218.555691-114.261347C459.406666 795.977959 379.472126 839.092919 293.438681 839.092919c-155.00326 0-281.107329-137.872091-281.107329-307.35718 0-101.108792 45.161572-172.036191 81.47564-229.02923 105.519242-165.533081 370.8257-371.528712 382.061602-380.216581 10.830673-8.370645 23.483854-12.56006 36.112476-12.56006 12.657274 0 25.293059 4.189416 36.105313 12.56006 11.253298 8.688893 276.583293 214.683501 382.069789 380.216581 36.323277 56.992015 81.508385 127.920438 81.508385 229.02923C1011.667625 701.220828 885.553323 839.092919 730.55518 839.092919zM882.975615 332.77943200000004c-40.670282-63.822584-115.618251-145.955186-216.744439-237.524718-80.541361-72.927963-149.441591-126.242216-152.335501-128.476093-0.562818-0.434905-1.289366-0.89744-1.913583-0.89744-0.484024 0-1.173732 0.320295-1.89721 0.877997-2.90619 2.248204-72.29249 56.013735-152.334477 128.493489-101.126188 91.573625-176.081321 173.709297-216.761835 237.527788-34.076096 53.480029-72.705905 114.104781-72.705905 198.954261 0 138.626267 101.005438 251.40689 225.15704 251.40689 67.286476 0 130.550335-33.376155 173.569104-91.568509l44.973284-60.838623 44.997843 60.821227c43.060725 58.204633 106.325607 91.585905 173.576267 91.585905 59.07035 0 114.967428-25.545816 157.39575-71.932286 43.699268-47.778166 67.765383-111.51684 67.765383-179.473581C955.715289 446.905702 917.072177 386.273786 882.975615 332.77943200000004z"  horiz-adv-x="1024" />

    
    <glyph glyph-name="down-trangle-copy" unicode="&#58881;" d="M536.37627522 175.02932196999996l369.13327878 369.1332788c14.11285224 14.11285224 14.11285224 37.87962372 0 52.7336945-14.11285224 14.11285224-37.87962372 14.11285224-52.73369447 0l-343.13639516-343.13639515-341.64879284 341.64879282c-14.11285224 14.11285224-37.87962372 14.11285224-52.73369447 0-14.11285224-14.11285224-14.11285224-37.87962372 0-52.73369447l367.64309383-367.64309384c15.59528928-14.85277944 38.62084225-14.85277945 53.48395225 0Z"  horiz-adv-x="1024" />

    
    <glyph glyph-name="shoucang1" unicode="&#59041;" d="M736.1536 859.776c-88.1408 0-169.8688-44.3776-224.1536-117.3376-53.696 72.96-136.0128 117.3376-224.1664 117.3376C129.0496 859.776 0.0384 718.5024 0.0384 545.1264c0-103.3216 46.1312-176.2944 83.4688-234.6752 108.0064-169.8816 380.032-380.608 391.7056-389.3632A58.7264 58.7264 0 0 1 512-91.776a58.688 58.688 0 0 1 36.7744 12.864c11.6864 8.7552 283.1232 220.0704 391.7056 389.3632 37.3632 58.3808 83.4816 131.3536 83.4816 234.6752 0 173.376-129.0112 314.6496-287.808 314.6496z m130.2016-547.5712c-99.84-140.1088-311.1552-300.0448-321.6512-307.648-9.9328-7.5904-21.6064-11.6608-32.704-11.6608a50.0224 50.0224 0 0 0-32.6912 11.6608c-10.5088 7.6032-217.7408 169.3056-321.6512 313.472-33.28 52.544-86.4 117.9392-86.4 210.1632 0 155.2896 86.4 264.448 228.2496 264.448 78.8224 0 164.6208-75.3152 212.5056-140.6848 48.4608 65.3696 133.6832 140.6848 212.4928 140.6848 142.4256 0 234.6624-109.1584 234.6624-264.448-0.0128-92.224-58.9696-164.0448-92.8128-215.9872z"  horiz-adv-x="1024" />

    
    <glyph glyph-name="shangyishou" unicode="&#58912;" d="M102.73620125 824.25702562L102.73620125-58.54027781000002c0-18.89822719 15.31889344-34.21712062 34.21616063-34.21712063 18.89630812 0 34.21616156 15.31889344 34.21616156 34.21712063l0 882.79730344c0 18.9001453-15.31985344 34.21807969-34.21616157 34.21808061-18.89822719 0-34.21616156-15.31793438-34.21616062-34.21808061zM793.52160875 779.99359594l-432.367335-354.02780905c-29.2803075-23.97222656-29.33595-62.96499 0-86.9842247L793.52160875-15.047205940000026C822.79999719-39.022310619999985 846.63887469-27.88138405999996 846.63887469 9.936175309999953l0 745.07499938c0 38.11783594-23.78131594 49.00357594-53.11726594 24.98242125z m-43.35492562 52.95034031c73.90829064 60.51768937 164.90643375 18.06838969 164.90643374-77.9318025L915.07311687 9.936175309999953c0-95.67976876-91.03843594-138.41591437-164.90643375-77.9318025l-432.367335 354.02876907c-62.76640406 51.394275-62.72611125 141.52228781 0 192.88490343L750.16668313 832.94393625z"  horiz-adv-x="1024" />

    
    <glyph glyph-name="xiayishou1" unicode="&#59860;" d="M889.6-4.26666666999995L889.6 821.33333333C889.6 839.00644333 875.273112 853.33333333 857.6 853.33333333 839.926888 853.33333333 825.6 839.00644333 825.6 821.33333333L825.6-4.26666666999995C825.6-21.93977867000001 839.926888-36.26666666999995 857.6-36.26666666999995 875.273112-36.26666666999995 889.6-21.93977867000001 889.6-4.26666666999995L889.6-4.26666666999995ZM243.571862 37.128052329999946L243.571862 37.128052329999946 647.924433 368.21803733C675.306549 390.63892733 675.359491 427.10400533 647.924433 449.56824533L243.571862 780.65822933C216.189747 803.07911933 193.896298 792.66138433 193.896298 757.29274433L193.896298 60.49353832999998C193.896298 24.84719832999997 216.136806 14.663812330000042 243.571862 37.128052329999946L243.571862 37.128052329999946ZM284.117862-12.389842670000007L284.117862-12.389842670000007C214.998042-68.98619567000003 129.896298-29.28620466999996 129.896298 60.49353832999998L129.896298 757.29274433C129.896298 846.77467733 215.036778 886.7407603300001 284.117862 830.17612333L688.470433 499.08613933C747.16997 451.02207233 747.132094 366.73319532999994 688.470433 318.70014332999995L284.117862-12.389842670000007Z"  horiz-adv-x="1024" />

    
    <glyph glyph-name="yinle1" unicode="&#58893;" d="M839.9 437.5c-4.5 0.6-8.6 3.9-12.2 9.7-3.6 5.8-6.3 16.5-8.3 32.1-3.2 25.3-11.5 43.9-24.8 55.9s-33.9 20.6-61.8 25.8c-29.2 5.8-55 17.7-77.3 35.5-22.4 17.8-41 34.5-55.9 50.1-14.3 13.6-25.3 18.5-33.1 14.6-7.8-3.9-11.7-11-11.7-21.4v-133.3c0-36.3-0.2-75.6-0.5-117.7-0.3-42.2-0.5-82-0.5-119.7v-154.7c0.6-15.6-1.8-32.9-7.3-52s-15.9-37.1-31.1-54c-15.2-16.9-35.5-31.3-60.8-43.3-25.3-12-56.8-19-94.4-20.9-38.3-1.9-72.8 4.9-103.6 20.4-30.8 15.6-54.6 35.2-71.5 58.9-16.9 23.7-25.1 49.6-24.8 77.8 0.3 28.2 12.5 54.6 36.5 79.3 24 24.6 49.9 41.8 77.8 51.6 27.9 9.7 54.8 15.1 80.7 16.1 25.9 1 49.1-0.8 69.6-5.4 20.4-4.5 35.5-8.8 45.2-12.6V505.6c0 76.5 0.3 162.8 1 258.8 0 18.8 4.9 34.2 14.6 46.2s22.7 19 38.9 20.9c13.6 1.9 24.8-0.8 33.6-8.3 8.8-7.5 17.7-17.8 26.8-31.1 9.1-13.3 20.3-28.4 33.6-45.2 13.3-16.9 31.3-33.4 54-49.6 19.5-14.9 36.5-25.6 51.1-32.1 14.6-6.5 28.2-12.5 40.9-18 12.6-5.5 25.1-12.2 37.5-19.9 12.3-7.8 25.9-20.4 40.9-37.9 14.9-16.9 24-34.4 27.2-52.5 3.2-18.2 3.4-34.7 0.5-49.6-2.9-14.9-7.6-27.1-14.1-36.5-6.7-9.6-12.2-13.9-16.7-13.3z m0 0"  horiz-adv-x="1024" />

    
    <glyph glyph-name="ziyuan" unicode="&#58885;" d="M366.267056 15.924167000000011a366.132319 366.132319 0 0 0 0 732.533655h220.59405l-53.803427 53.803427A53.803427 53.803427 0 1 0 608.920511 878.393098L753.382712 732.854828a53.803427 53.803427 0 0 0-38.200433-91.734842h-349.722274a258.525466 258.525466 0 0 1 0-517.319949 53.803427 53.803427 0 1 0 0-107.606853zM693.929925-128a53.803427 53.803427 0 0 0-37.931416 15.872011L511.267291 33.41027999999994a53.803427 53.803427 0 0 0 37.931416 91.734843h349.722274a258.525466 258.525466 0 0 1 0 517.319948 53.803427 53.803427 0 0 0 0 107.606854 366.132319 366.132319 0 0 0 0-732.533656H678.057914l53.803427-53.803426A53.803427 53.803427 0 0 0 693.929925-128z"  horiz-adv-x="1267" />

    
    <glyph glyph-name="yonghuhuaxiang" unicode="&#58883;" d="M149.248-76.8a80.7936 80.7936 0 0 0-28.6208 9.3184 74.9568 74.9568 0 0 0-15.5648 45.5168 322.6624 322.6624 0 0 0 4.5056 98.4576c1.6896 20.1728 12.2368 38.9632 29.44 52.48 16.9472 12.3392 36.1472 22.016 56.8832 28.6208 22.1184 7.2704 44.6464 13.6192 67.4816 19.0464a224.768 224.768 0 0 1 61.7984 24.1664c11.8272 6.4 22.5792 14.1824 31.8976 23.2448 6.7584 6.5536 12.1344 14.1312 15.9744 22.3232 3.584 7.3216 5.4272 15.2576 5.3248 23.2448 0 8.0384-0.4096 17.0496-1.2288 26.9312a48.8448 48.8448 0 0 1-15.9744 33.8944c-9.984 8.8576-20.3264 17.408-31.0784 25.5488a57.7024 57.7024 0 0 0-13.9264 18.1248 1993.0112 1993.0112 0 0 0-11.0592 23.7056 774.7584 774.7584 0 0 0-9.8304 29.696 48.128 48.128 0 0 0-13.9264 6.5024 78.7968 78.7968 0 0 0-13.1072 13.0048 73.3696 73.3696 0 0 0-11.8784 24.1664 57.4464 57.4464 0 0 0-4.5056 28.6208 79.36 79.36 0 0 0 5.3248 22.3232c2.9696 7.168 7.3728 13.7728 13.1072 19.5072a407.3472 407.3472 0 0 0 4.096 70.6048c2.9184 21.6576 7.7312 43.0592 14.336 64.1024 6.4512 21.8624 17.1008 42.5984 31.488 61.3376 11.4176 16.0256 25.8048 30.3104 42.5472 42.2912a217.6512 217.6512 0 0 0 96.9728 38.0928c15.7184 2.1504 31.5904 3.2256 47.4624 3.2768v-0.1024c19.3024 0 38.5024-2.048 57.2928-6.0416 18.432-3.84 36.4032-9.2672 53.6064-16.2304 15.7696-6.3488 30.72-14.1312 44.5952-23.2448 11.3664-7.4752 21.5552-16.2304 30.2592-26.0096 17.1008-19.6608 29.952-41.8304 38.0416-65.4848 7.4752-22.3744 13.1072-45.1584 16.7936-68.2496 3.6352-24.9344 5.376-50.0224 5.3248-75.1616a36.5568 36.5568 0 0 0 11.0592-12.0832 66.56 66.56 0 0 0 6.9632-41.8304 91.4432 91.4432 0 0 0-8.6016-31.0784 65.4336 65.4336 0 0 0-14.7456-18.1248 48.7936 48.7936 0 0 0-18.8416-10.1888c-3.072-9.9328-6.3488-19.8656-9.8304-29.696a481.4848 481.4848 0 0 0-11.4688-23.7056 65.4336 65.4336 0 0 0-14.7456-18.1248c-10.5472-7.7312-20.8896-15.616-31.0784-23.7056-9.1648-9.216-14.7456-20.7872-15.9744-32.9728a109.568 109.568 0 0 1-2.048-28.3136c0.9728-9.9328 3.84-19.6096 8.6016-28.6208 5.5808-10.3424 13.3632-19.6096 22.8864-27.392 12.9024-9.984 27.6992-17.8176 43.776-23.2448 17.7152-6.5536 35.8912-12.1344 54.4256-16.7424 19.4048-4.864 38.5536-10.5984 57.2928-17.2032 17.7152-5.9904 34.3552-14.1312 49.5104-24.1664 14.6432-10.0352 25.3952-23.7568 30.6688-39.3728 3.6864-12.032 6.144-24.2688 7.3728-36.7104 1.6384-14.6432 2.4576-29.3888 2.4576-44.1344a225.28 225.28 0 0 0-3.6864-41.8304c-1.2288-10.3936-4.7104-29.8496-10.24-39.0656-7.9872-6.6048-17.8688-7.424-28.6208-9.3184H149.248z"  horiz-adv-x="1024" />

    
    <glyph glyph-name="jiangbei-" unicode="&#58891;" d="M975.7 707.6H868.9v68c0 26.7-21.7 48.3-48.3 48.3H203.4c-26.7 0-48.3-21.7-48.3-48.3v-68H48.3C21.7 707.6 0 685.9 0 659.2V568c0-48.4 17.9-94.6 50.5-130.2 33.4-36.5 78.3-57.3 126.4-58.8 1.9-0.1 3.7-0.1 5.6-0.1 5.2 0 10.5 0.2 15.7 0.7 14.7-27.7 32.9-53.6 54.4-77.1 47.7-52.1 107.8-88 173.8-104.6V3c0-1.3 0.1-2.6 0.3-3.9h-89.1c-15.2 0-27.5-12.3-27.5-27.5s12.3-27.5 27.5-27.5h348.9c15.2 0 27.5 12.3 27.5 27.5s-12.3 27.5-27.5 27.5h-89.1c0.2 1.3 0.3 2.5 0.3 3.9V197.60000000000002c14.1 3.5 28.1 7.8 41.8 13.1 44.4 17 84.4 42.3 118.9 75.2 28.7 27.3 52.2 58.7 70.3 93.5 2.4-0.2 4.8-0.3 7.3-0.4 1.9-0.1 3.8-0.1 5.7-0.1 47.7 0 92.6 18.2 127 51.5 35.8 34.7 55.4 81.2 55.4 131.1v97.7c-0.1 26.7-21.8 48.4-48.4 48.4zM54.9 568v84.7H155v-99c0-41.1 6.7-81.5 19.6-119.6-66.3 4.1-119.7 63.3-119.7 133.9zM543-1h-62c0.2 1.3 0.3 2.5 0.3 3.9V188.60000000000002c4.5-0.4 9-0.7 13.5-0.9 5.8-0.3 11.6-0.4 17.4-0.4 10.2 0 20.4 0.4 30.5 1.3V3c0-1.4 0.1-2.7 0.3-4z m177.4 326.6c-29.2-27.9-63.1-49.3-100.6-63.6-16.9-6.5-34.2-11.3-51.8-14.6-1.8-0.1-3.5-0.4-5.2-0.9-21.4-3.6-43.3-5-65.5-3.9-12.5 0.6-24.8 2-37 4.1-0.9 0.2-1.9 0.4-2.9 0.5-62.5 11.7-119.8 43.6-164.4 92.3-53.5 58.5-83 134.6-83 214.2V769h604v-224.6c0-42.1-8.5-82.8-25.2-121-16.1-37-39.1-69.8-68.4-97.8z m248.7 235.9c0-34.8-13.8-67.4-38.8-91.7-21.6-20.9-49.1-33.3-78.6-35.6 11.5 35.4 17.3 72.3 17.3 110.2V652.6h100.1v-91.1z"  horiz-adv-x="1024" />

    
    <glyph glyph-name="shoucang2" unicode="&#58887;" d="M773.46304-109.44000000000005c-14.37184 0-30.57664 4.14208-45.61408 11.65824l-214.26688 107.14624-215.61344-106.99264c-13.67552-7.26528-29.30176-11.10016-45.22496-11.10016-20.92032 0-41.35424 6.69184-57.53856 18.82624-30.18752 22.64064-45.66016 61.83424-38.51776 97.54624l44.11904 228.7872L31.77472 393.98912c-26.00448 26.0096-36.31616 65.50528-26.27584 100.63872l0.3584 1.16224c12.27264 36.8128 42.77248 62.63808 79.72352 67.584l234.83904 42.7008 105.3952 214.08768c16.93696 33.88928 51.38432 55.68512 87.808 55.68512 37.99552 0 73.28768-22.58432 88.09984-56.27904l105.0624-213.4016 234.9056-41.0624c37.03296-5.19168 68.31616-32.55296 78.23872-68.37248 11.5712-35.6864 2.24256-74.31168-24.44288-100.99712l-0.59392-0.57856-168.53504-158.71488 42.56256-229.1712c6.86592-36.64896-7.69536-73.68192-38.03648-96.75264-15.72864-12.8768-36.10624-19.95776-57.4208-19.95776z m-259.78368 181.14048l239.13472-119.57248c7.01952-3.51232 15.12448-5.76512 20.65408-5.76512 8.55552 0 16.45568 2.65728 22.2464 7.4752l1.12128 0.896c13.60384 10.19904 20.1984 26.3936 17.22368 42.28608l-48.13312 259.15904 190.35648 179.26656c11.63776 11.83232 15.6416 28.81536 10.43968 44.42624l-0.49152 1.63328c-3.968 14.8992-17.04448 26.29632-32.53248 28.3648l-1.10592 0.17408-263.33696 46.03904-118.49216 240.7424c-5.75488 13.44512-21.376 23.19872-37.13024 23.19872-15.47776 0-30.32064-9.69216-37.82144-24.6784l-117.73952-239.1552-264.73472-48.09216c-16.09216-2.00704-28.5696-12.6976-34.33984-29.36832-4.10112-15.22176 0.76288-33.5616 11.93984-44.98432l190.51008-177.55648-50.00704-259.30752c-3.00544-15.03744 4.10112-32.29184 17.24416-42.14272 6.58944-4.95104 15.1296-7.65952 24.05888-7.65952 6.89152 0 13.53728 1.60256 19.21536 4.67456l0.82944 0.42496 240.89088 119.52128zM773.20192 421.03296a11.9808 11.9808 0 0 0-2.21696 0.19968l-173.79328 30.38208-77.78304 157.99808a12.83584 12.83584 0 0 0 23.02976 11.34592l72.01792-146.29376 160.95232-28.13952a12.83072 12.83072 0 0 0 10.42432-14.85312 12.84096 12.84096 0 0 0-12.63104-10.63936z"  horiz-adv-x="1024" />

    
    <glyph glyph-name="yinyue" unicode="&#58886;" d="M179.2-128C81.454545-128 0-48.872727000000054 0 51.200000000000045s79.127273 179.2 179.2 179.2c39.563636 0 76.8-13.963636 109.381818-37.236364l9.309091-6.981818V761.018182c0 34.909091 27.927273 62.836364 60.509091 62.836363l598.109091 69.818182h4.654545C993.745455 896 1024 868.072727 1024 833.163636v-672.581818c0-48.872727-18.618182-93.090909-53.527273-125.672727-32.581818-32.581818-79.127273-51.2-125.672727-51.2-97.745455 0-179.2 79.127273-179.2 179.2 0 97.745455 79.127273 179.2 179.2 179.2 39.563636 0 79.127273-13.963636 109.381818-37.236364l9.309091-6.981818V609.745455l-605.090909-65.163637v-493.381818c-2.327273-100.072727-81.454545-179.2-179.2-179.2z m0 295.563636c-65.163636 0-118.690909-53.527273-118.690909-118.690909s53.527273-118.690909 118.690909-118.690909 118.690909 53.527273 118.690909 118.690909c-2.327273 67.490909-53.527273 118.690909-118.690909 118.690909z m665.6 111.709091c-65.163636 0-118.690909-53.527273-118.690909-118.690909s53.527273-118.690909 118.690909-118.690909 118.690909 53.527273 118.690909 118.690909-53.527273 118.690909-118.690909 118.690909z m-488.727273 325.818182l605.090909 65.163636V835.490909l-598.109091-69.818182h-6.981818v-160.581818z"  horiz-adv-x="1024" />

    
    <glyph glyph-name="aixincopy" unicode="&#59013;" d="M1120.426667 531.968c0 176.938667-138.922667 321.024-309.418667 321.024-84.181333 0-163.882667-36.352-221.44-98.304-57.6 61.952-137.386667 98.304-221.44 98.304-170.581333 0-309.418667-144-309.418667-321.024 0-5.973333 0.554667-11.264 1.024-15.616-0.085333-1.408-0.128-2.858667-0.128-4.352 0-31.36 7.594667-65.749333 22.528-102.357333a42.026667 42.026667 0 0 1 1.536-3.797334c94.250667-226.133333 457.130667-486.272 472.576-498.218666a53.034667 53.034667 0 0 1 65.237334 0.298666c13.226667 10.282667 322.730667 233.088 445.610666 443.861334 4.650667 7.125333 8.106667 14.037333 11.221334 19.968 0.938667 1.877333 1.834667 3.797333 2.858666 5.632l0.384 0.853333a19.712 19.712 0 0 0 1.365334 2.133333c7.338667 14.336 13.226667 27.648 17.877333 40.618667 12.714667 33.408 18.986667 63.146667 18.986667 90.922667 0 2.133333-0.085333 4.053333-0.256 5.632 0.426667 3.626667 0.853333 8.533333 0.853333 14.421333z"  horiz-adv-x="1152" />

    
    <glyph glyph-name="gedan" unicode="&#58975;" d="M950.196471 771.776454c-9.40337 22.150355-34.981583 32.484766-57.13339 23.082848l-133.201339-56.459438c-17.023092-7.226099-27.053935-24.003722-26.526684-41.437867-0.013072-0.43284-0.031955-0.865679-0.031954-1.301424v-395.477515c-28.179609 17.85827-61.591058 28.205753-97.422344 28.205753-100.664284 0-182.26619-81.604811-182.26619-182.264737 0-100.662831 81.603359-182.26619 182.26619-182.26619 100.376692 0 181.795586 81.145827 182.256023 181.416488a43.529441 43.529441 0 0 1 2.312352 14.003381V669.430196l106.66594 45.211415c22.148902 9.40337 32.483313 34.981583 23.081396 57.134843zM112.181016 598.656545h519.955245c26.554281 0 48.078616 21.525787 48.078616 48.077163 0 26.554281-21.522882 48.077163-48.078616 48.077163H112.181016c-26.552828 0-48.075711-21.522882-48.075711-48.077163 0-26.551376 21.524335-48.077163 48.075711-48.077163zM113.890587 461.481214c-26.551376 0-48.075711-21.522882-48.07571-48.077163 0-26.549923 21.524335-48.080068 48.07571-48.080068h367.23545c26.552828 0 48.077163 21.528692 48.077163 48.080068 0 26.552828-21.522882 48.077163-48.077163 48.077163H113.890587zM340.707313 228.151557H113.890587c-26.551376 0-48.075711-21.522882-48.07571-48.078615 0-26.549923 21.524335-48.077163 48.07571-48.077163H340.708766c26.552828 0 48.077163 21.525787 48.077163 48.077163-0.001452 26.555733-21.524335 48.078616-48.078616 48.078615z"  horiz-adv-x="1024" />

    


  </font>
</defs>
</svg>
